
        <svg xmlns="http://www.w3.org/2000/svg" xmlns:xlink="http://www.w3.org/1999/xlink" version="1.1" width="3189.274447949527" 
        height="632.1766561514196" viewBox="0 0 3189.274447949527 632.1766561514196">
			
			<g transform="scale(9.46372239747634) translate(10, 10)">
				<defs id="SvgjsDefs10848"></defs><g id="SvgjsG10849" featureKey="symbolFeature-0" transform="matrix(0.47791675814668166,0,0,0.47791675814668166,11.53403280160396,-0.5137572334137319)" fill="#222831"><g xmlns="http://www.w3.org/2000/svg"><path d="M49.9,99c-8.2,0-16.5-2-23.9-6.3c-1.4-0.8-1.9-2.5-1.1-3.9c0.8-1.4,2.5-1.9,3.9-1.1c16.8,9.5,38.1,6.5,51.8-7.1   c8.2-8.2,12.7-19,12.7-30.6c0-11.6-4.5-22.4-12.7-30.6c-16.9-16.9-44.3-16.9-61.2,0c-16.9,16.9-16.9,44.3,0,61.2   c1.1,1.1,1.1,3,0,4.1c-1.1,1.1-3,1.1-4.1,0c-19.1-19.1-19.1-50.2,0-69.3c19.1-19.1,50.2-19.1,69.3,0C93.9,24.6,99,36.9,99,50   c0,13.1-5.1,25.4-14.4,34.7C75.2,94.1,62.6,99,49.9,99z"></path><path d="M43.4,72.7c-0.7,0-1.5-0.3-2-0.8c-1.1-1.1-1.1-3,0-4.1l17.9-17.9L41.4,31.9c-1.1-1.1-1.1-3,0-4.1c1.1-1.1,3-1.1,4.1,0   l20,20c1.1,1.1,1.1,3,0,4.1l-20,20C44.9,72.5,44.2,72.7,43.4,72.7z"></path></g></g><g id="SvgjsG10850" featureKey="nameFeature-0" transform="matrix(0.5386477101949073,0,0,0.5386477101949073,57.994618183134435,13.326690490679988)" fill="#202020"><path d="M23.281 16.875 l0 -15.547 l-6.5625 0 l0 37.344 l6.5625 0 l0 -21.797 z M44.8281 38.5937 l6.4844 0 l0 -19.922 l-6.4844 -9.1406 l0 29.063 z M70.76599999999999 1.4059999999999988 l0 25.703 l-18.359 -25.703 l-7.0313 0 l26.406 37.188 l5.3906 0 l0 -37.188 l-6.4063 0 z M114.813 27.344 c-0.98961 2.3959 -2.3438 4.375 -4.0625 5.9375 c-1.7709 1.6666 -3.8542 2.9688 -6.2501 3.9063 s-5.0781 1.4063 -8.0469 1.4063 l-8.6719 0 l0 -5.9375 l8.5938 0 c1.9791 0 3.776 -0.3125 5.3906 -0.9375 c1.5625 -0.625 2.9166 -1.5104 4.0625 -2.6563 s2.0313 -2.5 2.6563 -4.0625 s0.9375 -3.2813 0.9375 -5.1563 c0 -1.8229 -0.3125 -3.5156 -0.9375 -5.0781 c-0.625 -1.6146 -1.5104 -2.9427 -2.6563 -3.9844 c-1.0416 -1.0938 -2.3958 -1.9791 -4.0624 -2.6563 c-1.6666 -0.625 -3.4635 -0.9375 -5.3906 -0.9375 l-8.5938 0 l0 -5.9375 l8.6719 0 c2.7604 0 5.4166 0.49477 7.9688 1.4844 c2.3959 0.88539 4.5052 2.2135 6.3281 3.9844 c1.7709 1.6146 3.125 3.5938 4.0625 5.9375 c0.98961 2.3959 1.4844 4.8438 1.4844 7.3438 c0 2.7084 -0.49477 5.1563 -1.4844 7.3438 z M129.0938 1.4059999999999988 l27.813 0 l0 5.9375 l-27.813 0 l0 -5.9375 z M129.0938 32.6562 l27.734 0 l0 5.9375 l-27.734 0 l0 -5.9375 z M129.0938 16.875 l25.078 0 l0 5.8594 l-25.078 0 l0 -5.8594 z M167.8281 38.5937 l6.4844 0 l0 -19.922 l-6.4844 -9.1406 l0 29.063 z M193.766 1.4059999999999988 l0 25.703 l-18.359 -25.703 l-7.0313 0 l26.406 37.188 l5.3906 0 l0 -37.188 l-6.4063 0 z  M268.42175 38.5937 l7.0313 0 l-13.594 -37.266 l-7.1094 0 l7.8906 22.266 z M239.67185 38.5937 l6.875 0 l8.125 -19.844 l-3.3594 -8.9063 z M300.59375 22.891 l13.828 0 l0 -5.7813 l-13.828 0 l0 5.7813 z M314.42175 27.422 l-5.7813 0.000076294 l0 5.3125 l-5.7031 0 c-1.9791 0 -3.75 -0.3125 -5.3125 -0.9375 c-1.5625 -0.57289 -2.9427 -1.4323 -4.1406 -2.5781 c-1.0938 -1.1979 -1.9531 -2.552 -2.5781 -4.0624 c-0.625 -1.4584 -0.9375 -3.1511 -0.9375 -5.0782 c0 -1.8229 0.3125 -3.5156 0.9375 -5.0781 c0.67711 -1.6666 1.5365 -3.0208 2.5781 -4.0624 c1.1459 -1.1459 2.5261 -2.0573 4.1407 -2.7345 c1.5625 -0.625 3.3334 -0.9375 5.3125 -0.9375 l11.406 0.078125 l0 -5.9375 l-11.406 -0.078125 c-2.9166 0 -5.5989 0.46875 -8.0469 1.4063 c-2.3959 0.9375 -4.4792 2.2396 -6.2501 3.9063 c-1.7188 1.6666 -3.099 3.6458 -4.1406 5.9374 c-0.9375 2.2396 -1.4063 4.6875 -1.4063 7.3438 s0.46875 5.1302 1.4063 7.4219 c1.0416 2.3959 2.4219 4.375 4.1406 5.9375 c1.5625 1.5625 3.6459 2.8906 6.25 3.9844 c2.5 0.9375 5.1823 1.4063 8.0469 1.4063 l11.484 0 l0 -11.25 z M325.81255 1.4059999999999988 l27.813 0 l0 5.9375 l-27.813 0 l0 -5.9375 z M325.81255 32.6562 l27.734 0 l0 5.9375 l-27.734 0 l0 -5.9375 z M325.81255 16.875 l25.078 0 l0 5.8594 l-25.078 0 l0 -5.8594 z M364.54685 38.5937 l6.4844 0 l0 -19.922 l-6.4844 -9.1406 l0 29.063 z M390.48475 1.4059999999999988 l0 25.703 l-18.359 -25.703 l-7.0313 0 l26.406 37.188 l5.3906 0 l0 -37.188 l-6.4063 0 z M408.98435 12.5 c0.9375 -2.2916 2.2916 -4.2447 4.0624 -5.8593 c1.6146 -1.6146 3.698 -2.9167 6.2501 -3.9063 s5.2344 -1.4844 8.0469 -1.4844 l8.6719 0 l0 5.9375 l-8.5938 0 c-2.0313 0 -3.8281 0.33852 -5.3906 1.0156 c-1.6666 0.67711 -3.0208 1.5625 -4.0624 2.6563 c-1.0938 1.0416 -1.9791 2.3958 -2.6563 4.0624 c-0.625 1.5104 -0.9375 3.2031 -0.9375 5.0781 s0.3125 3.5677 0.9375 5.0781 c0.625 1.5625 1.5104 2.9166 2.6563 4.0625 c1.0416 1.0416 2.3958 1.901 4.0624 2.5781 c1.6666 0.625 3.4635 0.9375 5.3906 0.9375 l8.5938 0 l0 5.9375 l-8.6719 0 c-2.9166 0 -5.5729 -0.46875 -7.9688 -1.4063 c-2.5 -1.0416 -4.6094 -2.3698 -6.3281 -3.9844 c-1.7709 -1.6666 -3.125 -3.6458 -4.0625 -5.9374 c-0.98961 -2.3959 -1.4844 -4.8438 -1.4844 -7.3438 c0 -2.6563 0.49477 -5.1302 1.4844 -7.4219 z M451.85935 1.328000000000003 l-7.2656 0 l14.531 22.578 l0 14.766 l7.1094 0 l0 -14.922 z M480.84375 1.328000000000003 l-6.7969 0 l-8.5938 12.266 l3.8281 5.1563 z"></path></g>
			</g>
		</svg>
	